<svg width="11" height="6" viewBox="0 0 11 6" fill="none" xmlns="http://www.w3.org/2000/svg">
<mask id="path-1-inside-1_134_30" fill="white">
<path fill-rule="evenodd" clip-rule="evenodd" d="M10.8631 0.129395C9.51229 1.10488 7.63728 1.70925 5.56465 1.70925C3.49208 1.70925 1.61712 1.10491 0.26632 0.12948C0.250032 0.299046 0.241699 0.470936 0.241699 0.644773C0.241699 3.58459 2.62489 5.96779 5.56471 5.96779C8.50453 5.96779 10.8877 3.58459 10.8877 0.644773C10.8877 0.470907 10.8794 0.298988 10.8631 0.129395Z"/>
</mask>
<path fill-rule="evenodd" clip-rule="evenodd" d="M10.8631 0.129395C9.51229 1.10488 7.63728 1.70925 5.56465 1.70925C3.49208 1.70925 1.61712 1.10491 0.26632 0.12948C0.250032 0.299046 0.241699 0.470936 0.241699 0.644773C0.241699 3.58459 2.62489 5.96779 5.56471 5.96779C8.50453 5.96779 10.8877 3.58459 10.8877 0.644773C10.8877 0.470907 10.8794 0.298988 10.8631 0.129395Z" fill="url(#paint0_linear_134_30)"/>
<path d="M10.8631 0.129395L11.8585 0.0337611L11.6917 -1.70247L10.2776 -0.681314L10.8631 0.129395ZM0.26632 0.12948L0.851753 -0.681241L-0.562319 -1.70236L-0.729098 0.0338621L0.26632 0.12948ZM10.2776 -0.681314C9.11621 0.157414 7.45175 0.70925 5.56465 0.70925V2.70925C7.82281 2.70925 9.90837 2.05234 11.4485 0.940103L10.2776 -0.681314ZM5.56465 0.70925C3.6776 0.70925 2.01319 0.157446 0.851753 -0.681241L-0.319112 0.940202C1.22105 2.05237 3.30656 2.70925 5.56465 2.70925V0.70925ZM1.2417 0.644773C1.2417 0.502913 1.2485 0.362932 1.26174 0.225099L-0.729098 0.0338621C-0.748434 0.235161 -0.758301 0.43896 -0.758301 0.644773H1.2417ZM5.56471 4.96779C3.17718 4.96779 1.2417 3.03231 1.2417 0.644773H-0.758301C-0.758301 4.13688 2.07261 6.96779 5.56471 6.96779V4.96779ZM9.88773 0.644773C9.88773 3.03231 7.95225 4.96779 5.56471 4.96779V6.96779C9.05682 6.96779 11.8877 4.13688 11.8877 0.644773H9.88773ZM9.86768 0.225028C9.88093 0.362885 9.88773 0.50289 9.88773 0.644773H11.8877C11.8877 0.438924 11.8779 0.235091 11.8585 0.0337611L9.86768 0.225028Z" fill="url(#paint1_linear_134_30)" mask="url(#path-1-inside-1_134_30)"/>
<defs>
<linearGradient id="paint0_linear_134_30" x1="10.8877" y1="-0.500398" x2="-7.1455" y2="12.373" gradientUnits="userSpaceOnUse">
<stop stop-color="#037FF7"/>
<stop offset="1" stop-color="#2549A6"/>
</linearGradient>
<linearGradient id="paint1_linear_134_30" x1="10.8877" y1="-0.500398" x2="-7.1455" y2="12.373" gradientUnits="userSpaceOnUse">
<stop stop-color="#037FF7"/>
<stop offset="1" stop-color="#2549A6"/>
</linearGradient>
</defs>
</svg>
