<svg width="664" height="664" viewBox="0 0 664 664" fill="none" xmlns="http://www.w3.org/2000/svg">
<circle cx="332" cy="332" r="332" fill="url(#paint0_linear_3503_257)"/>
<mask id="mask0_3503_257" style="mask-type:alpha" maskUnits="userSpaceOnUse" x="0" y="0" width="664" height="664">
<circle cx="332" cy="332" r="332" fill="url(#paint1_linear_3503_257)"/>
</mask>
<g mask="url(#mask0_3503_257)">
<g opacity="0.05">
<path d="M649.184 87.8389L649.184 9.70198L703.431 9.70198L703.431 232.534L527.824 232.534L527.824 185.882L644.184 185.882L649.184 185.882L649.184 180.882L649.184 141.426L649.184 136.426L644.184 136.426L539.466 136.426L539.466 92.8389L644.184 92.8389L649.184 92.8389L649.184 87.8389Z" stroke="white" stroke-width="10"/>
<path d="M487.443 166.061L487.435 166.079L487.427 166.097C481.582 179.938 473.097 192.499 462.451 203.072C451.469 213.744 438.506 222.148 424.298 227.805L424.285 227.81C393.645 240.109 359.471 240.142 328.809 227.9C314.71 222.268 301.848 213.916 290.951 203.316C280.365 192.796 271.974 180.263 266.267 166.45L266.26 166.432L266.252 166.414C260.196 152.074 257.104 136.648 257.165 121.072L257.165 121.055L257.165 121.037C257.113 105.537 260.247 90.1944 266.369 75.9657L266.377 75.9469L266.385 75.9279C272.212 62.074 280.698 49.5068 291.358 38.9419C302.312 28.2817 315.239 19.8778 329.409 14.2039L329.424 14.198L329.439 14.1921C344.562 8.02594 360.746 4.90648 377.069 5.01107L377.118 5.01139L377.167 5.01073C398.584 4.72675 419.704 10.0691 438.429 20.5085L438.435 20.5123L438.442 20.516C456.223 30.3577 471.015 44.8523 481.244 62.46C491.534 80.2248 496.849 100.451 496.627 120.999L501.627 121.053L496.627 121.075C496.696 136.547 493.569 151.864 487.443 166.061ZM440.587 126.053L440.677 126.053L440.777 121.156C441.139 103.47 434.672 86.3275 422.725 73.3128C416.926 66.7731 409.774 61.5784 401.768 58.0909C393.768 54.6058 385.106 52.9098 376.386 53.121C357.705 53.1358 342.161 59.7683 330.186 73.0747C318.334 86.2452 312.424 102.321 312.362 120.996C312.016 138.668 318.488 155.793 330.432 168.794C342.6 182.243 358.248 188.966 376.97 188.966C395.476 188.966 410.928 182.319 422.914 169.015C433.718 157.022 439.587 142.625 440.587 126.053Z" stroke="white" stroke-width="10"/>
<path d="M225.903 9.70917L151.669 120.284L149.806 123.06L151.659 125.842L222.708 232.534L160.86 232.534L121.218 169.292L116.997 162.558L112.754 169.278L72.8162 232.534L12.7594 232.534L83.7684 126.565L85.6318 123.784L83.7707 121.001L9.35994 9.75796L71.2027 9.75797L114.231 77.5832L118.444 84.2231L122.67 77.592L165.904 9.75584L225.903 9.70917Z" stroke="white" stroke-width="10"/>
</g>
<g opacity="0.05">
<path d="M-10 479.49V246.658H175.607V303.31H54.247V342.767H163.964V396.353H54.247V479.49H-10Z" fill="#FCFCFC"/>
<path d="M196.804 363.139C196.732 346.979 199.998 330.98 206.397 316.15C212.499 301.702 221.358 288.59 232.476 277.554C243.932 266.416 257.457 257.646 272.283 251.742C304.115 238.964 339.62 238.93 371.476 251.648C386.192 257.527 399.615 266.246 410.985 277.311C422.051 288.303 430.822 301.399 436.785 315.833C443.104 330.795 446.329 346.889 446.266 363.139C446.32 379.323 443.048 395.344 436.654 410.203C430.571 424.667 421.71 437.788 410.576 448.818C399.151 459.941 385.665 468.71 370.88 474.63C355.148 481.044 338.311 484.29 321.33 484.181C299.038 484.477 277.056 478.916 257.568 468.051C238.993 457.77 223.543 442.629 212.861 424.239C202.12 405.696 196.572 384.585 196.804 363.139V363.139ZM262.653 363.139C262.317 379.553 268.325 395.461 279.418 407.53C284.741 413.541 291.308 418.315 298.659 421.517C306.011 424.72 313.97 426.274 321.982 426.071C339.368 426.071 353.55 419.972 364.528 407.773C375.506 395.574 381.02 380.696 381.069 363.139C381.401 346.731 375.393 330.831 364.304 318.767C353.128 306.406 338.846 300.226 321.461 300.226C304.298 300.226 290.222 306.325 279.232 318.524C268.241 330.723 262.727 345.595 262.69 363.139H262.653Z" fill="#FCFCFC"/>
<path d="M463.144 479.49L542.61 361.121L466.385 246.658H540.337L581.449 312.244L622.858 246.658H695.04L618.816 360.411L698.431 479.434H624.479L579.977 409.287L535.271 479.434L463.144 479.49Z" fill="#FCFCFC"/>
</g>
<g opacity="0.05">
<path d="M574.184 572.107L574.184 493.97L628.431 493.97L628.431 716.802L452.824 716.802L452.824 670.15L569.184 670.15L574.184 670.15L574.184 665.15L574.184 625.694L574.184 620.694L569.184 620.694L464.466 620.694L464.466 577.107L569.184 577.107L574.184 577.107L574.184 572.107Z" stroke="white" stroke-width="10"/>
<path d="M412.443 650.329L412.435 650.347L412.427 650.365C406.582 664.206 398.097 676.767 387.451 687.34C376.469 698.012 363.506 706.416 349.298 712.073L349.285 712.078C318.645 724.378 284.471 724.41 253.809 712.168C239.71 706.536 226.848 698.184 215.951 687.584C205.365 677.064 196.974 664.531 191.267 650.719L191.26 650.7L191.252 650.682C185.196 636.342 182.104 620.916 182.164 605.341L182.164 605.323L182.164 605.305C182.113 589.805 185.247 574.462 191.369 560.234L191.377 560.215L191.385 560.196C197.212 546.342 205.698 533.775 216.358 523.21C227.312 512.55 240.239 504.146 254.409 498.472L254.424 498.466L254.439 498.46C269.562 492.294 285.746 489.175 302.068 489.279L302.118 489.279L302.167 489.279C323.584 488.995 344.703 494.337 363.428 504.777L363.435 504.78L363.442 504.784C381.223 514.626 396.015 529.12 406.244 546.728C416.534 564.493 421.849 584.719 421.627 605.267L426.627 605.321L421.627 605.343C421.696 620.815 418.568 636.132 412.443 650.329ZM365.587 610.321L365.676 610.321L365.777 605.424C366.139 587.739 359.672 570.596 347.725 557.581C341.925 551.041 334.774 545.846 326.768 542.359C318.768 538.874 310.106 537.178 301.386 537.389C282.705 537.404 267.161 544.036 255.186 557.343C243.334 570.513 237.423 586.589 237.362 605.264C237.016 622.936 243.488 640.061 255.432 653.062C267.6 666.511 283.247 673.235 301.97 673.235C320.476 673.235 335.928 666.587 347.914 653.283C358.718 641.29 364.586 626.893 365.587 610.321Z" stroke="white" stroke-width="10"/>
<path d="M150.903 493.977L76.6694 604.552L74.806 607.328L76.659 610.111L147.708 716.802L85.8602 716.802L46.2184 653.56L41.9972 646.826L37.754 653.546L-2.18379 716.802L-62.2406 716.802L8.7684 610.833L10.6318 608.052L8.77069 605.27L-65.6401 494.026L-3.79731 494.026L39.2314 561.851L43.4437 568.491L47.6699 561.86L90.9038 494.024L150.903 493.977Z" stroke="white" stroke-width="10"/>
</g>
</g>
<path d="M511.947 403.243L479.731 333.797L529 259.643L510.691 120.074L391.373 223.762C372.344 220.121 353.002 218.385 333.631 218.579H329.583C310.191 218.395 290.828 220.132 271.776 223.762L152.427 120.074L134.074 259.643L183.354 333.797L151.138 403.243L162.381 404.859H162.467L158.312 420.074L165.635 422.746C243.008 450.869 322.313 539.537 323.075 540.431L325.588 543.265H337.4L339.913 540.431C340.708 539.537 420.013 450.826 497.385 422.746L504.709 420.074L500.585 404.859H500.65L511.947 403.243ZM420.851 426.711L460.831 417.013C417.522 439.296 377.348 474.251 350.222 500.876H312.884C285.737 474.229 245.596 439.242 202.276 416.97L242.256 426.668L208.418 402.09C199.569 396.085 189.763 391.64 179.424 388.944L234.191 270.925L190.345 309.166L155.981 257.348L162.682 205.93L187.016 226.1L203.725 192.816L192.171 177.817L268.555 244.224L272.625 243.308C291.315 239.43 310.369 237.587 329.454 237.813H333.749C352.789 237.661 371.792 239.506 390.45 243.319L394.509 244.224L470.925 177.817L459.392 192.816L476.101 226.122L500.435 205.93L507.19 257.327L472.772 309.144L428.948 270.925L483.64 388.923C473.3 391.618 463.495 396.064 454.645 402.068L420.851 426.711Z" fill="#FCFCFC"/>
<path d="M379.839 381.563C379.305 389.689 378.279 397.774 376.768 405.775L375.361 413.156L401.875 402.467L402.509 400.797C404.657 395.237 416.738 374.699 423.578 363.396L431.782 349.981L379.99 379.322L379.839 381.563Z" fill="#FCFCFC"/>
<path d="M283.278 381.563L283.17 379.311L231.388 349.992L239.56 363.472C246.38 374.721 258.471 395.258 260.608 400.818L261.242 402.489L287.756 413.156L286.317 405.753C284.822 397.758 283.808 389.68 283.278 381.563V381.563Z" fill="#FCFCFC"/>
<defs>
<linearGradient id="paint0_linear_3503_257" x1="611" y1="24" x2="-69.2975" y2="276.362" gradientUnits="userSpaceOnUse">
<stop/>
<stop offset="1" stop-color="#121212"/>
</linearGradient>
<linearGradient id="paint1_linear_3503_257" x1="611" y1="24" x2="-69.2975" y2="276.362" gradientUnits="userSpaceOnUse">
<stop/>
<stop offset="1" stop-color="#121212"/>
</linearGradient>
</defs>
</svg>
