<svg width="332" height="195" viewBox="0 0 332 195" fill="none" xmlns="http://www.w3.org/2000/svg">
<g opacity="0.7">
<path fill-rule="evenodd" clip-rule="evenodd" d="M218.964 39.6476L215.099 39.3102C212.421 39.0776 209.76 39.9122 207.699 41.631C205.638 43.3499 204.345 45.8128 204.103 48.4802L197.975 120.232C197.75 122.903 198.593 125.554 200.321 127.608C202.049 129.662 204.522 130.951 207.2 131.196L211.054 131.538C213.732 131.771 216.393 130.936 218.455 129.216C220.516 127.495 221.809 125.031 222.05 122.363L228.172 50.611C228.397 47.943 227.557 45.2941 225.832 43.2408C224.108 41.1875 221.639 39.8961 218.964 39.6476Z" fill="#222222"/>
<path fill-rule="evenodd" clip-rule="evenodd" d="M187.696 40.097L183.842 39.7541C181.164 39.5215 178.503 40.356 176.442 42.0749C174.381 43.7937 173.088 46.2566 172.846 48.924L166.792 120.89C166.318 126.428 170.527 130.475 176.084 130.965L179.938 131.308C185.495 131.797 190.376 128.558 190.849 123.02L196.903 51.0549C197.137 48.3858 196.298 45.7335 194.572 43.6794C192.846 41.6253 190.373 40.337 187.696 40.097Z" fill="#222222"/>
<path fill-rule="evenodd" clip-rule="evenodd" d="M127.11 39.1188C120.819 37.8651 113.896 38.2923 111.493 45.3034L78.594 142.086C74.0465 155.501 96.9588 163.006 101.461 149.844L134.36 53.0846C136.154 47.8222 132.582 40.1646 127.11 39.1188Z" fill="#222222"/>
<path fill-rule="evenodd" clip-rule="evenodd" d="M156.914 39.0011L153.038 38.6638C150.36 38.4296 147.697 39.2634 145.635 40.9824C143.572 42.7014 142.278 45.1653 142.036 47.8337L135.666 120.924C135.441 123.595 136.285 126.247 138.014 128.301C139.743 130.355 142.217 131.644 144.897 131.887L148.75 132.23C151.428 132.463 154.09 131.627 156.151 129.907C158.213 128.187 159.506 125.723 159.746 123.054L165.704 50.5605C166.178 45.0226 162.466 39.4959 156.914 39.0011Z" fill="#222222"/>
<path fill-rule="evenodd" clip-rule="evenodd" d="M114.63 147.731H112.655L113.637 145.054L114.63 147.731ZM117.315 150.587L114.421 143.368H112.88L110.06 150.587H111.611L112.209 148.951H115.103L115.73 150.587H117.315ZM121.439 147.933H123.132V148.85C122.654 149.24 122.057 149.456 121.439 149.462C121.141 149.481 120.842 149.426 120.569 149.302C120.297 149.179 120.059 148.991 119.877 148.754C119.494 148.201 119.307 147.536 119.346 146.865C119.346 145.268 120.04 144.47 121.428 144.47C121.79 144.43 122.155 144.522 122.454 144.728C122.754 144.935 122.968 145.242 123.059 145.594L124.509 145.324C124.2 143.915 123.173 143.209 121.428 143.205C120.494 143.181 119.584 143.51 118.884 144.127C118.517 144.486 118.234 144.921 118.053 145.4C117.873 145.88 117.8 146.393 117.84 146.904C117.801 147.891 118.135 148.856 118.776 149.609C119.127 149.973 119.554 150.256 120.027 150.437C120.5 150.619 121.007 150.695 121.513 150.66C122.651 150.698 123.759 150.295 124.605 149.536V146.662H121.439V147.877V147.933ZM125.953 150.587H131.46V149.372H127.409V147.405H131.031V146.19H127.409V144.594H131.313V143.368H125.953V150.587ZM132.724 150.587H134.083V145.881L137 150.587H138.461V143.368H137.107V148.192L134.145 143.374H132.724V150.592V150.587ZM144.634 147.933C144.397 148.951 143.861 149.462 143.026 149.462C141.841 149.462 141.249 148.621 141.249 146.938C141.249 145.255 141.85 144.44 143.054 144.492C143.416 144.461 143.775 144.569 144.06 144.794C144.344 145.019 144.531 145.343 144.583 145.701L146.027 145.364C145.888 144.719 145.517 144.149 144.983 143.759C144.45 143.37 143.791 143.188 143.133 143.25C142.666 143.224 142.199 143.304 141.768 143.484C141.336 143.662 140.95 143.936 140.639 144.284C140.012 145.063 139.695 146.043 139.748 147.039C139.731 147.956 140.012 148.853 140.549 149.597C140.926 150.034 141.415 150.36 141.964 150.541C142.512 150.722 143.099 150.752 143.663 150.628C144.228 150.503 144.748 150.229 145.168 149.833C145.588 149.438 145.892 148.937 146.05 148.383L144.634 147.933ZM149.198 150.587H150.654V147.562L153.311 143.368H151.619L149.954 146.23L148.262 143.368H146.569L149.221 147.545V150.587H149.198ZM156.764 150.587H158.113V144.908L159.54 150.587H160.934L162.372 144.908V150.587H163.755V143.368H161.56L160.262 148.293L158.953 143.368H156.77V150.587H156.764ZM165.199 150.587H170.706V149.372H166.66V147.405H170.294V146.19H166.66V144.594H170.525V143.368H165.159V150.587H165.199ZM173.402 144.594H174.063C174.552 144.569 175.043 144.618 175.518 144.74C175.83 144.861 176.081 145.099 176.218 145.403C176.433 145.901 176.528 146.442 176.494 146.983C176.494 147.933 176.348 148.569 176.049 148.889C175.836 149.072 175.588 149.209 175.32 149.292C175.053 149.375 174.77 149.402 174.491 149.372H173.402V144.594ZM171.941 143.368V150.587H174.689C176.9 150.587 178.006 149.408 178.006 147.05C178.031 146.298 177.882 145.55 177.572 144.863C177.352 144.345 176.951 143.924 176.444 143.677C175.861 143.452 175.24 143.347 174.615 143.368H171.941ZM179.191 150.587H180.658V143.368H179.191V150.587ZM185.877 147.731H183.902L184.884 145.054L185.877 147.731ZM188.568 150.587L185.668 143.368H184.128L181.307 150.587H182.859L183.457 148.951H186.323L186.949 150.587H188.568ZM192.061 150.587H193.415V144.908L194.842 150.587H196.253L197.691 144.908V150.587H199.045V143.368H196.856L195.553 148.293L194.222 143.368H192.038V150.587H192.061ZM204.332 147.731H202.357L203.339 145.054L204.332 147.731ZM207.023 150.587L204.123 143.368H202.583L199.762 150.587H201.313L201.912 148.951H204.806L205.432 150.587H207.023ZM209.28 146.426V144.594H210.409C210.916 144.55 211.427 144.612 211.909 144.773C212.014 144.867 212.097 144.984 212.151 145.113C212.206 145.243 212.23 145.383 212.224 145.523C212.217 145.663 212.18 145.801 212.114 145.925C212.048 146.049 211.955 146.157 211.842 146.241C211.361 146.397 210.856 146.46 210.352 146.426H209.28ZM207.825 150.587H209.28V147.568H209.573C209.886 147.546 210.198 147.604 210.482 147.736C210.692 147.867 210.871 148.041 211.007 148.248L212.575 150.587H214.324L213.404 149.176C213.024 148.462 212.471 147.854 211.796 147.405C213.072 147.221 213.709 146.55 213.709 145.392C213.747 145.087 213.701 144.778 213.576 144.498C213.451 144.217 213.251 143.976 212.998 143.801C212.339 143.47 211.602 143.321 210.865 143.368H207.762V150.587H207.825ZM215.159 150.587H216.615V148.405L217.805 147.202L219.791 150.576H221.681L218.81 146.173L221.535 143.362H219.498L216.547 146.567V143.362H215.097V150.581L215.159 150.587ZM222.432 150.587H227.933V149.372H223.893V147.405H227.526V146.19H223.893V144.594H227.797V143.368H222.432V150.587ZM230.804 150.587H232.266V144.594H234.404V143.368H228.593V144.594H230.737V150.587H230.804ZM235.318 150.587H236.785V143.368H235.318V150.587ZM238.179 150.587H239.544V145.881L242.461 150.587H243.871V143.368H242.512V148.192L239.549 143.374H238.128V150.592L238.179 150.587ZM248.825 147.933H250.518V148.85C250.039 149.238 249.442 149.455 248.825 149.462C248.532 149.478 248.239 149.424 247.972 149.305C247.704 149.186 247.468 149.005 247.285 148.777C246.902 148.223 246.715 147.558 246.754 146.887C246.754 145.291 247.45 144.492 248.842 144.492C249.204 144.454 249.568 144.546 249.867 144.753C250.166 144.959 250.381 145.265 250.473 145.617L251.923 145.347C251.614 143.937 250.587 143.231 248.842 143.227C247.906 143.203 246.995 143.533 246.292 144.149C245.927 144.51 245.645 144.945 245.466 145.425C245.287 145.904 245.214 146.416 245.254 146.927C245.214 147.913 245.549 148.879 246.19 149.631C246.54 149.995 246.966 150.278 247.438 150.46C247.91 150.641 248.416 150.718 248.921 150.682C250.061 150.721 251.171 150.318 252.018 149.558V146.685H248.865L248.825 147.933Z" fill="black"/>
<path fill-rule="evenodd" clip-rule="evenodd" d="M158.762 119.203C163.958 132.854 140.532 140.512 135.895 126.962L111.38 53.0848C110.252 49.7114 110.816 45.2698 112.983 42.4025C117.897 35.8525 131.161 36.3079 134.417 45.8208L158.762 119.203Z" fill="black"/>
<path fill-rule="evenodd" clip-rule="evenodd" d="M189.862 119.203C195.046 132.899 171.497 140.123 166.994 126.962L142.48 53.0846C141.597 50.4422 141.663 47.5766 142.666 44.9773C145.735 35.9816 161.888 35.2057 165.522 45.8206L189.862 119.203Z" fill="black"/>
<path fill-rule="evenodd" clip-rule="evenodd" d="M220.867 119.203C226.018 132.753 202.502 140.123 198 126.962L173.485 53.0846C172.603 50.4422 172.669 47.5766 173.671 44.9773C176.741 35.9816 192.894 35.2057 196.522 45.8206L220.867 119.203Z" fill="black"/>
<path fill-rule="evenodd" clip-rule="evenodd" d="M252.058 119.203C256.617 132.635 233.693 140.123 229.191 126.962L204.676 53.0846C203.794 50.4422 203.86 47.5766 204.862 44.9773C207.931 35.9816 224.085 35.2057 227.718 45.8206L252.058 119.203Z" fill="black"/>
</g>
</svg>
