<svg width="332" height="195" viewBox="0 0 332 195" fill="none" xmlns="http://www.w3.org/2000/svg">
<g opacity="0.7">
<path d="M35.0836 72.3201C33.965 74.1098 26.4705 104.424 27.0298 104.871C28.1484 105.99 30.833 103.864 31.1685 101.515C31.5041 99.1663 32.1753 98.9425 38.8868 98.6069C46.2695 98.2713 46.3813 98.2713 47.5 101.739C48.171 103.529 49.5134 105.095 50.4082 105.095C52.5336 105.095 52.5336 104.424 51.1912 99.9493C49.4016 94.3563 45.5983 81.2688 44.3679 76.2352C43.2493 71.8727 42.9137 71.5371 39.3342 71.5371C37.2089 71.5371 35.3073 71.8727 35.0836 72.3201ZM42.8019 84.5127C44.256 89.3227 45.4865 93.6851 45.4865 94.1325C45.4865 94.6919 42.69 95.0275 39.3342 95.0275C35.9785 95.0275 33.182 94.8037 33.182 94.4681C33.182 91.3361 38.2156 74.8929 39.1105 75.2284C39.7817 75.4522 41.4595 79.5909 42.8019 84.5127Z" fill="black"/>
<path d="M75.911 88.4274L76.2466 104.311L84.4122 104.199C88.9984 104.199 92.9136 103.864 93.249 103.528C94.8152 101.962 91.683 100.62 86.202 100.62H80.1616V86.6376C80.1616 73.3264 80.0498 72.6553 77.9244 72.6553C75.6872 72.6553 75.6872 73.2146 75.911 88.4274Z" fill="black"/>
<path d="M115.957 77.6889C115.957 81.9396 116.293 82.7226 118.082 82.7226C119.984 82.7226 120.208 81.9396 120.096 77.6889C119.872 73.662 119.425 72.6553 117.97 72.6553C116.293 72.6553 115.957 73.662 115.957 77.6889Z" fill="black"/>
<path d="M146.16 88.2037C146.16 98.0473 146.608 104.088 147.391 104.535C149.292 105.766 149.851 104.423 149.963 98.1591L150.075 92.2305H154.55C158.8 92.2305 159.136 92.4543 161.82 97.8235C165.512 105.094 166.63 105.989 169.65 103.976C171.105 102.969 170.993 102.634 169.203 101.179C167.973 100.285 166.183 97.7117 165.176 95.3627C163.386 91.2239 163.386 91.0001 166.071 87.1969C167.973 84.4005 168.532 82.387 168.084 79.9261C166.966 74.3332 163.834 72.6553 154.438 72.6553H146.16V88.2037ZM162.715 77.3534C163.498 78.1364 164.058 80.038 164.058 81.604C164.058 85.8546 162.044 87.1969 155.668 87.1969H149.963L150.187 81.8277C150.299 78.9194 150.411 76.4585 150.523 76.2348C150.97 75.3399 161.597 76.2348 162.715 77.3534Z" fill="black"/>
<path d="M194.258 88.9867C194.258 103.417 194.482 105.206 196.048 104.647C197.054 104.311 201.529 103.976 206.115 103.976C212.715 103.976 214.392 103.64 214.392 102.298C214.392 100.956 212.715 100.62 205.891 100.62H197.502L197.837 95.2507L198.173 89.9934L204.996 89.8815C208.799 89.7697 212.491 89.4341 213.162 88.9867C216.182 87.0851 213.721 86.0783 206.003 86.0783H197.614V81.0447V76.011H206.003C212.715 76.011 214.392 75.6755 214.392 74.3332C214.392 72.9908 212.491 72.6553 204.325 72.6553H194.258V88.9867Z" fill="black"/>
<path d="M240.12 74.3332C240.12 75.6755 241.574 76.0111 246.83 76.0111C250.522 76.0111 253.542 76.3466 253.542 76.6822C253.542 77.1296 250.522 82.387 246.83 88.5392C243.14 94.5797 240.12 100.62 240.12 101.739C240.12 104.088 240.454 104.088 256.562 104.423C258.688 104.535 259.806 103.864 260.03 102.522C260.366 100.62 259.694 100.508 253.094 100.732C249.068 100.844 245.488 100.732 245.152 100.508C244.93 100.173 247.95 94.4677 251.864 87.7562C255.892 81.0447 259.136 74.8925 259.136 74.1095C259.136 72.9909 256.674 72.6553 249.628 72.6553C241.908 72.6553 240.12 72.9909 240.12 74.3332Z" fill="black"/>
<path d="M284.864 88.6511V104.535H294.594C302.984 104.535 304.438 104.311 304.774 102.522C305.11 100.844 304.102 100.62 296.72 100.62H288.22V95.0271V89.4341H296.05C302.314 89.4341 303.88 89.0985 303.88 87.7562C303.88 86.4139 302.314 86.0783 296.05 86.0783H288.22V81.0447V76.0111H296.608C303.32 76.0111 304.998 75.6755 304.998 74.3332C304.998 72.9909 303.096 72.6553 294.93 72.6553H284.864V88.6511Z" fill="black"/>
<path d="M117.077 118.517C113.05 118.965 106.339 119.412 101.976 119.524C97.7254 119.636 93.0274 119.971 91.6852 120.307C83.9668 122.432 92.8038 122.992 128.039 122.768C149.404 122.656 163.051 122.32 158.465 121.873C153.879 121.426 151.306 121.09 152.872 120.866C154.438 120.754 158.577 120.419 162.268 120.083C166.071 119.636 169.091 119.86 169.539 120.531C169.986 121.202 170.769 120.978 171.664 120.083C172.895 118.741 171.217 118.517 160.366 118.517C153.319 118.517 142.357 118.294 135.981 118.07C129.605 117.846 121.104 117.958 117.077 118.517Z" fill="black"/>
<path d="M174.123 119.636C174.123 120.196 174.682 120.755 175.242 120.755C175.913 120.755 176.36 120.196 176.36 119.636C176.36 118.965 175.913 118.518 175.242 118.518C174.682 118.518 174.123 118.965 174.123 119.636Z" fill="black"/>
<path d="M177.479 120.196C177.479 121.09 177.702 121.873 177.926 121.873C178.15 121.873 178.597 121.09 179.045 120.196C179.38 119.301 179.156 118.518 178.597 118.518C177.926 118.518 177.479 119.301 177.479 120.196Z" fill="black"/>
<path d="M182.737 120.308C183.073 121.314 183.744 121.538 184.079 120.979C184.862 119.748 188.665 119.86 190.791 121.314C191.797 121.874 192.133 121.762 191.574 120.979C191.238 120.42 191.574 119.637 192.245 119.301C193.028 119.077 191.126 118.742 187.882 118.742C183.073 118.63 182.178 118.965 182.737 120.308Z" fill="black"/>
<path d="M196.496 119.636C196.496 120.196 197.055 120.755 197.615 120.755C198.286 120.755 198.733 120.196 198.733 119.636C198.733 118.965 198.286 118.518 197.615 118.518C197.055 118.518 196.496 118.965 196.496 119.636Z" fill="black"/>
<path d="M236.206 121.873C236.542 122.433 240.122 122.992 244.148 122.992C248.734 122.992 251.196 122.544 250.748 121.873C250.412 121.202 246.832 120.755 242.806 120.755C238.22 120.755 235.758 121.202 236.206 121.873Z" fill="black"/>
<path d="M51.0794 122.656C48.9542 122.768 43.9205 123.327 39.8936 123.663C34.3006 124.222 33.1821 124.557 35.0837 125.34C36.426 125.788 40.4529 125.788 44.0324 125.229C47.6118 124.669 58.2384 123.998 67.6346 123.774C77.0308 123.439 85.0846 122.991 85.4202 122.544C86.0912 121.873 58.3502 121.873 51.0794 122.656Z" fill="black"/>
<path d="M255.782 122.992C255.782 123.551 256.34 124.11 256.9 124.11C257.57 124.11 258.018 123.551 258.018 122.992C258.018 122.32 257.57 121.873 256.9 121.873C256.34 121.873 255.782 122.32 255.782 122.992Z" fill="black"/>
<path d="M260.704 123.104C260.48 123.551 268.198 124.222 277.93 124.67C287.55 125.005 296.052 125.453 296.61 125.453C301.084 125.676 303.882 125.005 303.882 123.775C303.882 122.768 298.848 122.433 282.516 122.433C270.772 122.433 260.928 122.768 260.704 123.104Z" fill="black"/>
</g>
</svg>
