<svg width="332" height="195" viewBox="0 0 332 195" fill="none" xmlns="http://www.w3.org/2000/svg">
<g opacity="0.7">
<path d="M64.4374 63.6001V92.1747C64.4374 97.833 66.4178 101.228 68.3982 102.643V102.925H51.1404V102.643C52.8379 101.511 54.8183 97.833 54.8183 92.1747V79.4434H35.58V91.6088C35.58 97.5501 37.5604 100.945 39.2579 102.36V102.643H22V102.36C23.6975 101.228 25.9608 97.5501 25.9608 91.6088V63.3172C25.9608 57.376 23.9804 53.981 22 52.5664V52.8493H39.2579C37.5604 53.981 35.58 57.6589 35.58 63.6001V72.3705H54.5354V63.6001C54.5354 57.6589 52.5549 54.2639 50.8574 52.8493H68.1153C66.4178 54.2639 64.4374 57.6589 64.4374 63.6001Z" fill="#060606"/>
<path d="M123.567 102.642L107.441 102.925V102.642C108.573 101.793 109.138 98.681 107.441 93.8715L106.875 92.7398H87.9198L87.6368 93.8715C85.6564 98.964 86.5052 101.793 87.3539 102.642V102.925H72.3594V102.642C74.3398 100.944 77.4519 96.4177 79.1494 91.0423L89.9002 61.3361C91.3148 57.0924 89.9002 53.9803 88.4856 52.8486H107.441C106.026 53.9803 104.612 57.0924 106.026 61.3361L116.494 91.0423C118.475 96.4177 121.587 100.944 123.567 102.642ZM93.5781 77.4623L90.7489 85.6669H104.895L102.066 77.4623C100.368 72.9357 98.6706 67.8432 97.8218 62.4678H97.5389C96.6902 67.8432 94.9927 72.6528 93.5781 77.4623Z" fill="#060606"/>
<path d="M224.567 102.643L208.441 102.925V102.643C209.572 101.794 210.138 98.6817 208.441 93.8722L207.875 92.7405H188.92V93.8722C186.939 98.9646 187.788 101.794 188.637 102.643V102.925H173.642V102.643C175.623 100.945 178.735 96.4184 180.432 91.043L190.9 61.3368C192.315 57.0931 190.9 53.981 189.485 52.8493V52.5664H208.441V52.8493C207.026 53.981 205.612 57.0931 207.026 61.3368L217.494 91.043C219.474 96.4184 222.587 100.945 224.567 102.643ZM194.578 77.463L191.749 85.6676H205.895L203.065 77.463C201.368 72.9364 199.67 67.8439 198.822 62.4685H198.539C197.69 67.8439 195.992 72.6534 194.578 77.463Z" fill="#060606"/>
<path d="M172.516 101.511L157.804 104.34C156.955 101.511 155.824 98.9646 154.126 96.4184L143.092 77.463H146.487C152.712 77.463 156.107 74.9168 156.107 68.6926C156.107 63.3172 152.712 60.2051 146.487 60.2051H141.395V92.4576C141.395 98.1159 143.375 101.511 145.073 102.925V103.208H127.815V102.925C129.795 101.794 131.776 98.1159 131.776 92.1747V63.3172C131.776 57.6589 129.795 54.2639 127.815 52.8493V52.5664H148.185C159.502 52.5664 166.292 58.5076 166.292 67.8439C166.292 75.4826 162.614 80.0093 156.672 81.9897L163.179 92.7405C166.009 97.5501 169.121 100.379 172.516 101.511Z" fill="#060606"/>
<path d="M263.892 65.2976C262.194 62.4685 258.799 59.9222 254.556 59.9222H249.18V91.3259C249.18 97.5501 251.161 101.228 253.424 102.643V102.925H235.035V102.643C237.015 101.511 239.278 97.5501 239.278 91.3259V60.2051H233.903C229.659 60.2051 226.264 62.7514 224.567 65.5805H224.284L225.415 52.5664C228.81 53.1322 231.64 53.1322 235.035 53.1322H252.292C255.687 53.1322 258.799 52.8493 261.912 52.5664L263.892 65.2976Z" fill="#060606"/>
<path d="M278.89 100.944L277.759 88.7791H278.042C282.285 94.4374 286.812 96.4178 292.753 96.4178C298.412 96.1349 300.958 93.8716 300.958 89.9107C300.958 84.8183 296.714 83.1208 291.622 81.1404C285.398 78.5941 278.608 75.482 278.608 65.58C278.608 58.5071 284.549 52 295.582 52C299.26 52 302.655 52.5658 306.899 53.4146L307.748 65.2971H307.465C304.353 60.4875 300.392 59.3558 296.148 59.3558C290.773 59.3558 287.944 61.3362 287.944 65.0141C287.944 69.2579 291.905 70.9554 296.431 72.6529C302.655 75.1991 310.294 78.5941 310.294 89.3449C310.294 97.2666 304.353 103.774 292.753 104.057C287.378 104.057 282.003 102.925 278.89 100.944Z" fill="#060606"/>
<path d="M268.986 65.2969C268.986 65.5799 268.986 67.2773 268.986 67.5603L273.796 66.7115V65.2969L274.362 56.8095C274.644 55.112 274.644 53.9803 274.927 52.8486H267.854C268.137 53.9803 268.42 55.112 268.42 56.8095L268.986 65.2969Z" fill="#060606"/>
<path d="M25.6768 143.099V123.012H28.7888V143.099H25.6768Z" fill="#060606"/>
<path d="M64.439 143.099L61.6099 134.894H59.9124V143.099H56.8003V123.012H61.8928C65.5707 123.012 66.9853 124.709 66.9853 128.953C66.9853 131.499 66.4194 133.197 64.7219 134.045L67.5511 142.816L64.439 143.099ZM61.8928 126.124H59.9124V132.065H61.8928C63.5903 132.065 63.8732 130.65 63.8732 128.953C63.8732 127.538 63.5903 126.124 61.8928 126.124Z" fill="#060606"/>
<path d="M95.5576 143.099V123.012H98.6697V143.099H95.5576Z" fill="#060606"/>
<path d="M135.732 141.967C134.883 142.816 133.468 143.382 131.771 143.382C130.073 143.382 128.659 142.816 127.81 141.967C127.244 141.118 126.678 139.987 126.678 137.723H129.79C129.79 138.855 129.79 139.421 130.356 139.987C130.639 140.27 131.205 140.553 131.771 140.553C132.337 140.553 132.902 140.27 133.185 139.987C133.468 139.421 133.751 138.855 133.751 137.723C133.751 135.743 133.468 135.177 131.771 134.611L129.507 133.48C127.527 132.631 126.678 131.499 126.678 128.387C126.678 126.69 127.244 125.275 128.376 124.143C129.224 123.295 130.356 123.012 131.771 123.012C133.468 123.012 134.6 123.295 135.166 124.143C136.297 125.275 136.58 126.69 136.58 128.387H133.468C133.468 127.538 133.468 126.69 132.902 126.407C132.619 126.124 132.337 125.841 131.488 125.841C130.922 125.841 130.356 126.124 130.073 126.407C129.79 126.69 129.507 127.538 129.507 128.387C129.507 130.085 129.79 130.368 131.205 131.216L133.468 132.065C135.732 133.197 136.58 134.328 136.58 137.723C137.146 139.704 136.863 141.118 135.732 141.967Z" fill="#060606"/>
<path d="M171.946 143.099V134.328H167.985V143.099H164.873V123.012H167.985V131.499H171.946V123.012H175.058V143.099H171.946Z" fill="#060606"/>
<path d="M226.266 135.459H224.286V143.381H221.174V123.294H226.266C229.944 123.294 231.359 125.274 231.359 129.518C231.359 133.479 229.944 135.459 226.266 135.459ZM226.266 126.123H224.569V132.63H226.266C227.964 132.63 228.247 131.499 228.247 129.518C228.247 127.255 227.964 126.123 226.266 126.123Z" fill="#060606"/>
<path d="M268.141 141.966C267.292 143.098 265.877 143.381 264.463 143.381C263.048 143.381 261.633 142.815 260.785 141.966C259.936 141.118 259.37 139.703 259.37 138.288V123.294H262.482V138.571C262.482 139.986 263.331 140.835 264.463 140.835C265.594 140.835 266.443 140.269 266.443 138.571V123.294H269.555V138.288C269.555 139.703 268.989 141.118 268.141 141.966Z" fill="#060606"/>
<path d="M306.333 141.967C305.484 142.816 304.352 143.099 302.372 143.099H297.562V123.012H302.372C304.352 123.012 305.484 123.295 306.333 124.143C307.182 124.992 307.465 126.124 307.465 128.104C307.465 129.519 307.182 130.65 306.333 131.499C306.05 131.782 305.767 132.065 305.201 132.065C305.484 132.348 306.05 132.631 306.333 132.631C307.182 133.48 307.465 134.894 307.465 136.592C307.747 139.704 307.465 140.835 306.333 141.967ZM302.372 126.124H300.957V131.499H302.372C304.07 131.499 304.635 130.65 304.635 128.67C304.635 126.69 304.07 126.124 302.372 126.124ZM302.372 134.045H300.957V140.27H302.372C304.07 140.27 304.635 139.421 304.635 137.158C304.635 134.894 304.07 134.045 302.372 134.045Z" fill="#060606"/>
</g>
</svg>
