<svg width="332" height="195" viewBox="0 0 332 195" fill="none" xmlns="http://www.w3.org/2000/svg">
<path fill-rule="evenodd" clip-rule="evenodd" d="M13 78.1523H24.84V91.5815H45.9962V78.1523H57.6885V115.851H45.9962V99.9851H24.7057V115.699H13V78.1523ZM59.0309 78.1523H70.5755L82.7108 92.6475L94.6984 78.1523H106.095L88.4831 101.203V115.851H76.7908V100.137L59.0309 78.1523ZM107.585 78.1523H119.278V107.309H138.071C141.025 107.309 142.958 104.263 142.958 101.051V78.1523H154.65V108.223C154.65 112.957 149.468 115.699 146.515 115.699H107.585V78.1523ZM157.16 78.1523H196.09C200.681 78.1523 204.373 81.0458 204.373 86.9297V115.768L192.68 115.837V92.9659C192.68 89.7678 191.647 87.8573 187.646 87.8573H170.034V115.948H157.16V78.1523ZM207.93 78.1523H241.96C248.766 78.1523 254.028 83.8009 254.028 88.148V105.468C253.947 108.513 249.813 115.837 244.631 115.837H207.93V78.1523ZM219.837 107.461H237.798C240.389 107.461 242.389 105.481 242.389 103.031V92.0383C242.389 89.3663 240.255 87.7742 237.53 87.7742H219.837V107.461ZM268.459 78H304.945V115.851H291.924V106.091H269.506V115.851H256.337V91.2769C256.015 83.0394 263.129 78 268.459 78ZM269.345 91.443V97.5346H291.843V87.9127H272.889C270.674 87.9127 269.345 89.2971 269.345 91.443ZM307.308 78.0831H319V117H307.308V78.0831Z" fill="#515151"/>
</svg>
