<svg width="332" height="195" viewBox="0 0 332 195" fill="none" xmlns="http://www.w3.org/2000/svg">
<g opacity="0.7" clip-path="url(#clip0_3601_274)">
<path d="M52.2015 112.932H46.6672L46.5135 112.329C46.2059 111.275 46.6672 111.124 49.127 111.124C50.3568 111.124 51.4328 110.973 51.5865 110.823C51.7402 110.672 51.7402 107.056 51.7402 99.3719V88.0718L49.7418 91.5371C48.6657 93.4958 46.6672 97.4132 45.1298 100.276C43.5927 103.139 41.9016 106.453 41.2866 107.508C40.6716 108.563 39.7492 110.069 39.2881 110.973C38.8268 111.727 38.3657 112.48 38.212 112.631C37.2896 112.932 37.1357 112.48 30.0642 99.8239C23.4537 87.9211 22.9925 87.1678 22.8388 87.7704C22.6851 88.2224 22.0701 96.5092 21.7627 104.193C21.609 107.508 21.7627 109.015 22.6851 109.919C22.9925 110.22 23.9149 110.521 25.1448 110.672C27.6045 110.973 27.7582 111.124 27.7582 111.877V112.48H20.3791C13.1537 112.48 13 112.48 13 112.028C13 111.425 13.7687 110.973 15.7672 110.22C18.0731 109.467 18.3806 109.316 18.6881 107.809C18.5343 107.357 19.1493 103.139 19.4567 98.6185C19.7642 94.0985 20.3791 89.7291 20.3791 88.8251C20.994 84.0037 20.994 83.8531 18.3806 83.2504C16.2284 82.6477 15.9209 82.497 16.0746 81.8944C16.2284 80.9904 17.3045 80.8397 20.0717 81.141C21.4552 81.2917 23.4537 81.4424 24.6836 81.4424C26.3746 81.4424 26.9896 81.4424 27.297 81.8944C27.7582 82.497 30.6791 87.6198 35.4449 96.8105C37.597 100.879 39.4418 104.344 39.5955 104.495C39.7492 104.645 40.0568 104.796 40.2105 104.645C40.6716 104.193 50.0494 86.1131 50.9717 84.0037C51.4328 82.9491 51.8941 81.8944 52.0478 81.8944C52.2015 81.7437 54.6613 81.7437 57.7358 81.593C63.1165 81.4424 63.1165 81.4424 63.2702 82.045C63.2702 82.497 63.2702 82.6477 62.3478 82.7984C60.3493 83.0997 59.4269 83.4011 58.9656 84.0037C58.5045 84.4557 58.5045 84.9077 58.5045 97.7145V110.973L59.2732 111.124C59.5806 111.124 60.6567 111.275 61.4254 111.425C63.1165 111.576 64.0389 112.028 64.0389 112.631C64.0389 113.233 63.4239 113.233 60.503 113.233C58.8119 113.083 55.1224 113.083 52.2015 112.932Z" fill="black"/>
<path d="M87.2531 112.781C86.0233 112.631 84.6396 112.179 84.6396 111.877C84.6396 111.275 85.2546 110.973 86.0233 110.973C86.9457 110.973 88.6368 110.22 89.2516 109.617C89.7129 109.165 97.707 92.5919 99.3978 88.8252L99.8591 87.6198L99.2441 86.5652C98.783 85.9625 98.6293 85.5105 98.783 85.2091C98.9367 84.9078 100.32 84.3051 101.089 84.3051C101.55 84.3051 102.473 83.4011 102.78 82.6478C102.78 82.3464 103.087 82.0451 103.549 82.0451C104.317 82.0451 103.856 80.8398 109.544 96.2079C115.232 111.124 114.925 110.672 115.54 110.973C115.847 111.124 116.616 111.275 117.538 111.275C119.383 111.275 119.998 111.576 119.998 112.329C119.998 112.781 119.691 112.781 111.696 112.932C107.085 112.932 103.395 112.932 103.241 112.932C102.78 112.781 102.934 112.179 103.549 111.727C103.856 111.425 104.625 111.275 105.855 111.275C107.699 111.275 108.622 110.973 108.622 110.371C108.622 109.919 106.316 104.193 105.855 103.741C105.547 103.289 104.932 103.289 100.474 103.289C96.0159 103.289 95.4009 103.289 94.9396 103.741C94.4785 104.193 92.7874 108.563 92.7874 109.617C92.7874 110.371 93.7098 110.823 95.5546 111.124C96.477 111.124 97.3994 111.425 97.8607 111.576C98.4755 111.877 98.6293 112.781 98.0144 112.781C96.9383 112.781 88.0218 112.781 87.2531 112.781ZM104.778 101.783C104.932 101.783 105.24 101.481 105.24 101.18C105.24 100.577 101.397 91.0852 101.089 90.6332C100.935 90.4825 100.628 90.3319 100.474 90.4825C100.013 90.9345 96.1696 100.125 96.1696 100.728C96.1696 101.029 96.1696 101.331 96.1696 101.331C96.1696 101.331 97.8607 101.481 99.8591 101.481C101.858 101.481 103.702 101.632 104.01 101.632C104.317 101.632 104.625 101.933 104.778 101.783Z" fill="black"/>
<path d="M203.935 112.781C202.705 112.631 201.322 112.179 201.322 111.877C201.322 111.275 201.937 110.973 202.705 110.973C203.628 110.973 205.319 110.22 205.934 109.617C206.241 109.165 214.388 92.7425 216.079 88.8252L216.541 87.6198L215.927 86.5652C215.465 85.9625 215.311 85.5105 215.465 85.2091C215.618 84.9078 217.002 84.3051 217.771 84.3051C218.232 84.3051 219.155 83.4011 219.462 82.6478C219.615 82.1958 219.924 82.0451 220.385 82.0451C221.154 82.0451 220.692 80.8398 226.381 96.2079C232.067 111.124 231.76 110.672 232.376 110.973C232.683 111.124 233.452 111.275 234.375 111.275C236.219 111.275 236.835 111.576 236.835 112.329C236.835 112.932 237.603 112.932 228.07 112.781C223.921 112.781 220.385 112.781 220.231 112.781C219.769 112.781 219.924 112.028 220.385 111.727C220.692 111.425 221.461 111.275 222.691 111.275C224.535 111.275 225.458 110.973 225.458 110.371C225.458 109.919 223.152 104.193 222.691 103.741C222.384 103.289 221.768 103.289 217.309 103.289C212.851 103.289 212.237 103.289 211.775 103.741C211.314 104.193 209.623 108.563 209.623 109.617C209.623 110.371 210.546 110.823 212.389 111.124C213.312 111.124 214.235 111.425 214.697 111.576C215.311 111.877 215.465 112.781 214.849 112.781C213.619 112.781 204.55 112.781 203.935 112.781ZM221.461 101.783C221.613 101.783 221.922 101.481 221.922 101.18C221.922 100.577 218.078 91.0852 217.771 90.6332C217.616 90.4825 217.309 90.3319 217.157 90.4825C216.695 90.9345 212.851 100.125 212.851 100.728C212.851 101.029 212.851 101.331 212.851 101.331C212.851 101.331 214.542 101.481 216.541 101.481C218.539 101.481 220.385 101.632 220.692 101.632C220.999 101.632 221.154 101.933 221.461 101.783Z" fill="black"/>
<path d="M258.507 112.631C258.2 112.481 258.048 112.33 258.048 112.029C258.048 111.275 258.507 110.974 260.66 110.823C261.89 110.673 262.966 110.522 262.966 110.522C263.275 110.221 263.275 84.6071 262.966 84.0044C262.813 83.5524 262.506 83.5524 260.506 83.5524C257.893 83.5524 257.432 83.4018 257.432 82.6484C257.432 81.5938 257.586 81.5938 266.503 81.5938H274.804V82.1964C274.956 82.9498 274.188 83.4018 272.498 83.4018C271.882 83.4018 270.959 83.4018 270.652 83.5524L269.884 83.7031V96.6605C269.884 103.742 269.884 109.769 270.038 110.07C270.191 110.371 270.652 110.522 272.498 110.522C274.035 110.522 274.956 110.673 275.111 110.823C275.572 111.275 275.418 112.179 274.956 112.481C274.342 113.083 259.123 112.933 258.507 112.631Z" fill="black"/>
<path d="M141.214 112.029C141.214 111.275 141.368 111.275 144.288 110.974C145.365 110.974 146.287 110.823 146.441 110.673C146.748 110.522 146.748 84.4565 146.441 83.7032C146.287 83.1005 146.133 83.1005 144.135 83.1005C141.675 83.1005 141.06 82.7992 141.368 81.8952L141.521 81.2925H152.744C163.659 81.4431 163.966 81.4431 165.657 81.8952C168.578 82.7992 170.423 84.3058 171.345 86.5659C172.114 88.3739 172.114 91.8392 171.345 93.4966C170.73 94.8526 168.732 96.2086 166.426 97.2633C165.811 97.5646 165.196 97.866 165.196 97.866C165.196 98.1673 170.884 104.646 172.421 106.303C175.035 109.015 177.956 110.522 181.184 111.275C181.645 111.426 181.799 111.577 181.799 112.029V112.631H172.729C167.809 112.631 163.505 112.481 163.351 112.481C163.197 112.33 163.044 112.029 163.044 111.878C163.044 111.426 163.351 111.426 165.196 111.275C166.272 111.275 167.348 111.125 167.348 110.974C167.502 110.823 165.196 107.961 162.275 104.646L157.048 98.4686L155.05 98.318C153.512 98.1673 153.051 98.1673 152.898 98.4686C152.59 98.9206 152.59 107.961 152.898 109.166C153.205 110.673 153.82 111.125 155.818 111.275C157.509 111.426 157.509 111.426 157.509 112.029V112.631H149.362H141.214V112.029ZM158.278 96.2086C160.584 95.6059 162.429 94.8526 163.044 94.0993C164.427 92.5926 165.042 88.9766 164.12 86.8672C163.351 84.9085 161.045 83.4018 158.278 82.7992C156.126 82.3472 153.82 82.4978 153.205 82.9498C152.59 83.2512 152.59 83.4018 152.59 89.5792C152.59 93.0446 152.744 95.9073 152.744 96.0579C153.205 96.962 155.511 96.962 158.278 96.2086Z" fill="black"/>
<path d="M303.551 112.029C299.863 110.824 297.71 109.166 297.71 107.81C297.71 107.509 297.864 106.605 298.171 106.002C298.478 105.4 298.785 104.194 299.094 103.29C299.554 101.633 300.015 101.03 300.631 101.633C300.784 101.784 300.938 102.386 300.938 102.838C300.938 103.29 301.093 104.496 301.4 105.249C302.782 109.166 305.551 111.125 309.393 110.824C311.546 110.673 312.929 110.071 314.159 108.714C315.234 107.509 315.543 106.304 315.082 104.496C314.466 101.482 312.774 100.428 305.396 98.1677C301.4 96.9623 299.554 95.6063 298.326 93.3463C297.403 91.3876 297.248 88.5249 298.171 86.8676C299.554 84.4569 302.014 82.3475 304.78 81.7449C307.702 80.9915 311.546 81.7449 313.852 83.4022C315.082 84.3062 315.543 84.3062 316.157 83.7035C317.387 82.4982 317.849 83.5529 317.233 86.4156C316.312 90.6343 315.696 92.1409 314.927 91.0863C314.775 90.7849 314.466 90.1823 314.466 89.7303C314.159 87.9222 313.545 86.5662 312.315 85.3609C310.623 83.7035 309.855 83.2515 307.395 83.2515C305.551 83.2515 305.242 83.2515 304.321 84.0049C302.323 85.3609 301.707 88.2236 302.782 90.0316C303.705 91.3876 305.551 92.4423 309.548 93.6476C314.313 95.1543 316.312 96.209 317.849 97.8663C319.386 99.5237 320 101.03 320 103.592C320 105.852 319.54 107.057 317.694 109.317C315.85 111.577 312.315 112.933 308.009 112.933C306.01 112.632 305.242 112.481 303.551 112.029Z" fill="black"/>
</g>
<defs>
<clipPath id="clip0_3601_274">
<rect width="307" height="33" fill="white" transform="translate(13 81)"/>
</clipPath>
</defs>
</svg>
