<svg width="332" height="195" viewBox="0 0 332 195" fill="none" xmlns="http://www.w3.org/2000/svg">
<g opacity="0.7">
<path d="M108.487 184.763V165.506C108.487 164.044 108.244 163.556 108.244 163.313C108.244 163.069 107.756 162.338 107.025 162.338C106.294 162.338 105.806 162.825 105.562 163.313C105.562 163.556 105.319 164.044 105.319 165.019V184.763H101.906V159.656H105.075V161.363C105.319 160.875 105.806 160.388 106.294 159.9C107.025 159.413 107.756 159.169 108.731 159.169C110.194 159.169 110.925 159.9 111.169 160.388C111.656 161.119 111.9 162.338 111.9 165.019V184.763H108.487Z" fill="#060606"/>
<path d="M78.5063 173.306V178.425C78.5063 178.912 78.5063 179.887 78.75 180.375C79.2375 181.594 80.2125 181.594 80.9438 181.594C81.4313 181.594 81.9188 181.594 82.4063 181.106C82.8938 180.375 82.8937 179.156 82.8937 178.669V176.962C82.8937 175.012 82.4063 173.306 81.4313 171.6L78.2625 166.481C77.5313 165.262 76.8 164.044 76.3125 162.825C75.825 161.362 75.3375 159.412 75.3375 157.706V156.731C75.3375 155.269 75.5813 153.562 76.8 152.1C78.0188 150.637 79.4813 150.15 81.1875 150.15C82.8938 150.15 84.6 150.637 85.8188 152.344C87.0375 154.05 86.7938 156 86.7938 157.462V160.875H82.8937V156.975C82.8937 155.512 82.65 154.781 82.4063 154.537C82.1625 153.806 81.4313 153.562 80.9438 153.562C80.2125 153.562 79.9688 153.806 79.4813 154.294C79.2375 154.781 78.9938 155.512 78.9938 156V156.487C78.9938 158.437 79.2375 160.387 80.7 162.581L83.8688 167.456C85.0875 169.406 86.55 172.087 86.55 176.719V177.206C86.55 178.912 86.55 181.106 85.3313 182.812C84.1125 185.006 82.65 185.25 80.9438 185.25C79.725 185.25 78.0188 185.006 76.8 183.787C75.0938 182.081 75.0938 179.644 75.0938 177.694V173.306H78.5063Z" fill="#060606"/>
<path d="M126.525 150.394H132.375C135.544 150.394 136.762 151.856 137.25 152.588C137.737 153.075 138.225 154.538 138.225 158.194V177.938C138.225 179.4 137.981 181.35 136.762 183.056C135.544 184.519 133.594 185.006 132.375 185.006H126.281V150.394H126.525ZM131.887 181.106C132.619 181.106 133.594 181.106 134.081 179.888C134.325 179.644 134.325 178.913 134.325 177.206V157.95C134.325 156.975 134.325 155.756 133.837 155.025C133.35 154.05 132.131 154.05 131.644 154.05H129.937V181.106H131.887Z" fill="#060606"/>
<path d="M150.656 179.888C150.656 181.838 150.169 183.056 149.681 183.788C149.194 184.519 147.975 185.494 146.025 185.494C144.075 185.494 142.856 184.763 142.125 183.788C140.906 182.325 140.906 180.619 140.906 179.156V165.263C140.906 163.8 140.906 162.094 142.125 160.631C142.856 159.656 144.319 159.169 145.781 159.169C147.244 159.169 148.706 159.9 149.437 160.631C150.656 162.094 150.656 163.556 150.656 165.263V172.819H144.319V179.644C144.319 180.863 144.562 181.35 144.562 181.594C144.806 182.081 145.294 182.325 145.781 182.325C146.512 182.325 146.756 182.081 147 181.594C147.244 181.35 147.244 180.863 147.244 179.644V175.5H150.413V179.888H150.656ZM147.487 164.531C147.487 164.044 147.487 163.313 147.244 162.825C147 162.581 146.756 162.338 146.025 162.338C145.294 162.338 145.05 162.581 144.806 162.825C144.562 163.313 144.562 163.8 144.562 164.531V170.138H147.487V164.531Z" fill="#060606"/>
<path d="M155.287 184.762L152.362 159.656H155.775L157.237 176.231V178.425H157.481V176.231L158.944 159.656H162.356L159.187 184.762H155.287Z" fill="#060606"/>
<path d="M173.569 179.888C173.569 181.838 173.081 183.056 172.594 183.788C172.106 184.275 170.888 185.25 168.938 185.25C166.988 185.25 165.769 184.519 165.038 183.544C164.063 182.325 164.062 180.375 164.062 179.156V165.263C164.062 163.8 164.063 162.094 165.281 160.631C166.013 159.656 167.475 159.169 168.938 159.169C170.4 159.169 171.863 159.9 172.594 160.631C173.813 162.094 173.813 163.556 173.813 165.263V172.819H167.475V179.644C167.475 180.863 167.719 181.35 167.719 181.594C167.963 182.081 168.45 182.325 168.938 182.325C169.669 182.325 169.913 182.081 170.156 181.594C170.4 181.35 170.4 180.863 170.4 179.644V175.5H173.569V179.888ZM170.156 164.531C170.156 164.044 170.156 163.313 169.913 162.825C169.669 162.581 169.425 162.338 168.694 162.338C167.963 162.338 167.719 162.581 167.475 162.825C167.231 163.313 167.231 163.8 167.231 164.531V170.138H170.156V164.531Z" fill="#060606"/>
<path d="M192.338 178.669C192.338 180.131 192.338 182.081 191.606 183.544C190.875 184.275 189.656 185.25 187.219 185.25C185.025 185.25 183.806 184.275 183.075 183.3C182.1 181.837 182.344 180.131 182.344 178.425V165.019C182.344 164.044 182.344 162.337 183.075 160.875C183.563 160.144 184.781 158.925 187.219 158.925C189.656 158.925 190.875 160.144 191.363 160.875C192.338 162.337 192.094 163.8 192.094 165.019V178.669H192.338ZM188.681 163.069C188.194 162.337 187.706 162.337 187.219 162.337C186.731 162.337 186.244 162.337 185.756 163.069C185.513 163.556 185.513 164.044 185.513 164.531V179.887C185.513 180.375 185.513 180.862 185.756 181.35C186.244 182.081 186.731 182.081 187.219 182.081C187.706 182.081 188.194 182.081 188.681 181.35C188.925 180.862 188.925 180.375 188.925 179.887V164.531C188.925 164.044 188.925 163.556 188.681 163.069Z" fill="#060606"/>
<path d="M195.019 192.075V159.656H197.944L198.432 160.875C198.675 160.387 198.919 160.144 199.407 159.9C199.894 159.412 200.625 159.412 201.357 159.412C203.306 159.412 204.038 160.631 204.525 161.606C204.769 162.337 205.013 163.312 205.013 165.019V180.131C205.013 181.594 205.013 183.3 204.281 184.519C203.55 185.981 202.575 186.225 201.6 186.225C200.625 186.225 199.894 185.981 199.407 185.494C198.919 185.006 198.675 184.762 198.675 184.275V192.562H195.019V192.075ZM201.113 162.825C200.869 162.337 200.625 162.094 200.138 162.094C199.65 162.094 199.163 162.337 198.675 163.069C198.432 163.556 198.432 164.287 198.432 165.019V179.156C198.432 179.644 198.432 180.619 198.675 181.35C198.919 181.837 199.163 182.812 200.138 182.812C200.869 182.812 201.113 182.569 201.113 182.081C201.113 181.837 201.357 181.35 201.357 179.644V164.775C201.357 164.044 201.357 163.312 201.113 162.825Z" fill="#060606"/>
<path d="M220.369 184.762V165.994C220.369 164.044 220.369 163.8 220.125 163.556C219.881 162.825 219.15 162.825 218.906 162.825C218.419 162.825 217.931 163.069 217.688 163.556C217.444 164.044 217.444 164.531 217.444 165.75V184.762H214.031V165.994C214.031 165.506 214.031 164.044 213.788 163.8C213.544 163.069 213.056 162.825 212.569 162.825C212.081 162.825 211.594 163.069 211.35 163.556C211.35 163.8 210.863 164.287 210.863 165.506V185.006H207.45V159.656H210.619L211.106 160.875C211.35 160.631 211.594 160.144 212.081 159.656C212.813 159.169 213.544 158.925 214.031 158.925C214.763 158.925 215.494 159.169 215.981 159.656C216.469 160.144 216.956 160.631 216.956 160.875C217.444 160.387 217.688 159.9 218.419 159.656C219.15 159.169 219.638 159.169 220.613 159.169C221.588 159.169 222.563 159.656 223.05 160.387C223.781 161.362 223.781 162.581 223.781 163.556V184.762H220.369Z" fill="#060606"/>
<path d="M235.969 179.888C235.969 181.838 235.481 183.056 234.994 183.788C234.506 184.519 233.288 185.494 231.338 185.494C229.388 185.494 228.169 184.763 227.438 183.788C226.219 182.325 226.219 180.619 226.219 179.156V165.263C226.219 163.8 226.219 162.094 227.438 160.631C228.169 159.656 229.631 159.169 231.094 159.169C232.556 159.169 234.019 159.9 234.75 160.631C235.969 162.094 235.969 163.556 235.969 165.263V172.819H229.631V179.644C229.631 180.863 229.875 181.35 229.875 181.594C230.119 182.081 230.606 182.325 231.094 182.325C231.825 182.325 232.069 182.081 232.313 181.594C232.556 181.35 232.556 180.863 232.556 179.644V175.5H235.725V179.888H235.969ZM232.556 164.531C232.556 164.044 232.556 163.313 232.313 162.825C232.069 162.581 231.825 162.338 231.094 162.338C230.363 162.338 230.119 162.581 229.875 162.825C229.631 163.313 229.631 163.8 229.631 164.531V170.138H232.556V164.531Z" fill="#060606"/>
<path d="M245.231 184.763V165.506C245.231 164.044 244.987 163.556 244.987 163.313C244.987 163.069 244.5 162.338 243.769 162.338C243.037 162.338 242.55 162.825 242.306 163.313C242.306 163.556 242.062 164.044 242.062 165.019V184.763H238.65V159.656H241.819V161.363C242.062 160.875 242.55 160.388 243.037 159.9C243.769 159.413 244.5 159.169 245.475 159.169C246.937 159.169 247.669 159.9 247.912 160.388C248.4 161.119 248.644 162.338 248.644 165.019V184.763H245.231Z" fill="#060606"/>
<path d="M95.8123 161.606V179.887C95.8123 180.619 95.8123 181.106 95.5685 181.35C95.3248 181.837 94.8373 182.081 94.106 182.081C93.6185 182.081 93.131 181.837 92.8873 181.106C92.6435 180.619 92.6435 179.156 92.6435 178.669V159.656L89.231 161.606V179.4C89.231 181.35 89.4748 182.812 90.206 184.031C90.9373 185.006 91.6685 185.25 92.6435 185.25C93.3748 185.25 94.106 185.006 94.5935 184.519C94.8373 184.275 95.3248 184.031 95.8123 183.3V184.762H98.981V159.656L95.8123 161.606Z" fill="#060606"/>
<path d="M176.25 152.344V184.763H179.663V150.394L176.25 152.344Z" fill="#060606"/>
<path d="M255.956 162.581H257.906V159.656H255.956V150.394L252.544 152.344V159.656H250.594V162.581H252.544V180.863C252.544 181.35 252.544 182.325 252.788 182.813C253.031 183.3 253.275 184.031 254.006 184.275C254.738 184.763 255.469 184.763 256.2 184.763H257.906V181.838H256.688C255.956 181.838 255.956 180.619 255.956 180.131V162.581Z" fill="#060606"/>
<path d="M211.106 112.369V108.956C211.106 108.469 210.863 108.225 210.619 107.737L208.669 105.3L208.913 105.544L197.944 90.9186V53.6248C197.944 53.1373 197.7 52.8936 197.457 52.4061L173.325 20.2312C173.325 20.2312 173.325 19.9873 173.082 19.9873C173.082 19.9873 173.082 19.9873 172.838 19.7437H172.594H172.35H172.107H171.863H171.619C171.619 19.7437 171.375 19.7437 171.375 19.9873C171.375 19.9873 171.132 19.9873 171.132 20.2312L154.8 41.6811C154.557 41.9248 154.313 42.4123 154.313 42.8998V50.4562L147 41.4373C147 41.4373 147 41.4373 146.757 41.1936L146.513 40.9498H146.269H146.025H145.782H145.538H145.294C145.294 40.9498 145.05 40.9498 145.05 41.1936C145.05 41.1936 145.05 41.4373 144.807 41.4373L134.569 55.0873C134.325 55.3312 134.082 55.8187 134.082 56.3062V80.4373V81.1687V82.6311L127.257 91.4061C127.013 91.6498 126.769 92.1373 126.769 92.6248V136.012L130.425 133.819V93.1123L144.075 75.0748V136.012L147.732 133.819V48.0186L163.819 69.2248V135.769L167.475 133.575V68.7373C167.475 68.2498 167.232 68.0062 166.988 67.5187L157.482 55.0873V43.1437L170.157 26.5687V135.769L173.813 133.575V26.8123L194.532 54.3561V91.8936V136.012L198.188 133.819V97.2561L204.525 105.787L207.45 109.687V112.612V136.256L211.106 133.575V114.562V112.369ZM143.832 68.9812L137.25 77.5123V56.7937L143.832 48.0186V68.9812Z" fill="#060606"/>
<path d="M213.544 26.5685C200.625 11.4561 181.856 2.9248 162.112 2.9248C151.875 2.9248 141.881 5.11855 132.375 9.7498C116.287 17.7935 104.1 31.4435 98.2499 48.506C92.3999 65.5685 93.6185 83.8499 101.419 100.181C105.806 108.956 111.9 116.756 119.456 122.85C119.456 122.85 119.456 122.85 119.7 122.85H119.944V122.606C116.287 118.462 113.119 113.587 110.681 108.469C102.881 92.381 101.662 74.0999 107.512 57.281C113.362 40.4624 125.306 26.5685 141.394 18.7685C150.656 14.1374 160.65 11.9436 170.887 11.9436C186.244 11.9436 201.356 17.306 213.3 27.056C213.3 27.056 213.3 27.056 213.544 27.056C213.544 26.8124 213.544 26.8124 213.544 26.5685Z" fill="#060606"/>
</g>
</svg>
