<svg width="332" height="195" viewBox="0 0 332 195" fill="none" xmlns="http://www.w3.org/2000/svg">
<g opacity="0.7">
<path d="M37.3422 71.104C43.1643 86.0231 33.6124 95.575 24.1515 105.127C15.3274 114.861 7.50392 125.049 23.1508 143.334C17.2377 128.415 26.8806 118.863 36.3415 109.312C45.2566 99.4867 53.0801 89.389 37.3422 71.104Z" fill="#060606"/>
<path d="M23.1513 52C29.0643 66.9191 19.4215 76.471 9.96058 86.0229C1.13645 95.8477 -6.687 105.945 8.9599 124.23C3.04683 109.311 12.6897 99.7594 22.1506 90.2076C31.0657 80.4737 38.8891 70.285 23.1513 52Z" fill="#060606"/>
<path d="M264.222 110.949V141.424H277.504V130.234H292.15V123.594H277.504V117.681H306.614V141.424H319.896V117.681H331.995V110.949" fill="#060606"/>
<path d="M235.659 134.783V129.507H253.034V122.866H235.659V117.681H257.946V110.949H222.286V141.424H258.219V134.783" fill="#060606"/>
<path d="M95.1098 110.949H58.1758V117.681H69.911V141.424H83.2836V117.681H95.1098" fill="#060606"/>
<path d="M105.206 129.871L111.392 118.135L117.306 129.871H105.206ZM121.399 110.949H107.117L90.4692 141.424H99.1114L101.841 136.238H120.489L123.219 141.424H137.956" fill="#060606"/>
<path d="M205.911 110.949V126.232L184.624 110.949H174.253V141.424H183.441V124.685L205.274 141.424H215.099V110.949" fill="#060606"/>
<path d="M169.795 110.949H133.589V117.681H145.415V141.424H158.788V117.681H169.795" fill="#060606"/>
</g>
</svg>
