<svg width="332" height="195" viewBox="0 0 332 195" fill="none" xmlns="http://www.w3.org/2000/svg">
<g opacity="0.7">
<path d="M141.05 70.6694C141.177 72.1415 141.44 73.723 141.703 75.3869C142.008 77.1252 142.401 78.846 142.882 80.5433C143.046 81.2473 143.273 81.9329 143.49 82.6276L146.212 75.9812L153.632 79.1264C153.632 79.044 153.632 78.9526 153.56 78.8703C153.251 77.8736 153.043 76.8679 152.798 75.8716C152.553 74.8751 152.39 73.8877 152.263 72.9094C152.006 71.0294 151.845 69.1377 151.782 67.2411C151.782 66.1259 151.782 65.0562 151.782 64.0322L148.743 71.3461L140.75 67.9633C140.85 68.7953 140.932 69.7097 141.05 70.6694Z" fill="#060606"/>
<path d="M276.664 83.643V83.3688L275.185 82.2534L274.396 81.6228C274.17 81.4489 273.952 81.3026 273.733 81.1473L256.053 67.6258V67.4246H255.817L248.252 61.6557V53.7842L237.048 43.9837L243.869 40.2354L235.859 36.3774C231.052 34.0643 225.754 32.6564 218.687 31.8062C216.755 31.5776 214.469 31.4131 211.864 31.3217C207.615 27.6528 202.895 24.5777 197.831 22.1794L195.363 21L193.196 22.6639C191.152 24.2514 189.556 26.3506 188.569 28.7527C183.851 27.2102 178.986 26.1685 174.054 25.6443L170.588 25.3517L169.409 28.6521C168.343 31.5842 167.514 34.5989 166.933 37.6665C166.824 38.5806 166.751 39.3852 166.706 40.1988L162.977 41.9267C162.124 41.528 161.196 41.3191 160.256 41.3142H159.712L150.295 24.8581L145.587 44.77L132.932 31.3582V54.287C131.68 55.1192 130.945 55.6584 130.827 55.7407L129.484 56.7282L129.094 58.3556C129.031 58.6387 128.977 58.9406 128.922 59.2698C120.676 63.8408 112.303 68.8327 104.882 73.8973L93.3156 81.7962L104.537 85.5172C96.6632 90.6825 86.285 98.0422 77.9573 106.252H56.04L52.6562 119.965L65.1389 132.417L57.7999 161.517H87.1833L89.1063 154.276L96.3636 161.517H136.733L144.897 153.006L142.629 161.517H176.285L184.904 155.977L190.519 161.517H206.304L214.932 155.94L220.582 161.508H249.829L260.788 120.084L250.256 109.68C251.164 109.68 252.125 109.754 253.178 109.754C258.666 109.754 264.191 109.159 264.417 109.132L266.149 108.949L275.222 98.7644L278.85 94.9978L279.123 94.5225C279.441 93.9497 279.676 93.3341 279.82 92.6939L280.002 91.1579C279.994 88.9454 279.204 86.3034 276.664 83.643ZM275.14 92.1911L271.875 95.6285L263.936 104.542C263.936 104.542 253.957 105.621 247.843 104.853L244.995 107.733C239.618 106.283 234.132 105.277 228.593 104.725C222.701 104.451 216.799 104.555 210.921 105.036C209.899 106.887 209.038 108.824 208.345 110.823H244.995L255.682 121.483L246.283 156.947H222.379L215.439 150.125L204.889 156.947H192.279L185.412 150.171L174.87 156.947H148.49L153.751 137.016L134.792 156.947H98.2234L86.7477 145.49L83.6996 156.947H63.633L70.1737 130.982L57.682 118.521L59.587 110.823H79.8351C91.2654 99.0842 107.957 88.6805 115.097 84.2099L103.503 80.3611L107.422 77.6823C115.387 72.1969 124.432 66.9126 133.213 62.1404C133.222 61.2188 133.319 60.3005 133.503 59.3976C133.503 59.3976 134.946 58.337 137.468 56.7463V42.8227L146.022 51.965C146.929 51.4896 147.9 51.0507 148.889 50.5479L152.064 37.191L157.598 46.8452C158.442 46.5344 159.303 46.2328 160.174 45.9311C160.618 45.9119 161.054 46.0577 161.398 46.3408C161.743 46.624 161.972 47.0247 162.043 47.467C166.107 45.538 169.3 44.0752 171.242 43.1975C171.18 41.5638 171.253 39.928 171.459 38.3064C172.002 35.5492 172.754 32.8381 173.709 30.1971C179.895 30.879 185.957 32.4172 191.725 34.7684C191.8 33.1387 192.212 31.5429 192.938 30.0845C193.662 28.626 194.684 27.3375 195.935 26.3025C195.935 26.3025 204.752 30.3892 209.978 35.8472C212.871 35.9111 215.72 36.0665 218.142 36.35C225.155 37.191 229.817 38.5441 233.882 40.5006L229.128 43.1152L243.697 55.9144V63.969L270.913 84.7583L271.629 85.2796L272.146 85.7002L272.31 85.828C276.674 89.485 275.14 92.1911 275.14 92.1911Z" fill="#060606"/>
<path d="M262.004 88.0505H265.505L254.81 79.9322L254.347 80.6544C254.094 81.0475 253.776 81.4039 253.44 81.7971C253.146 82.2059 252.828 82.5965 252.488 82.9673L251.463 84.0827L250.936 84.6314C250.756 84.8141 250.556 84.9786 250.374 85.1434L249.277 86.1125C248.914 86.4233 248.588 86.7343 248.242 87.0265L247.263 87.7487L245.258 89.2209L246.827 87.3008L247.581 86.3866C247.843 86.0576 248.079 85.6737 248.342 85.2987L249.14 84.1286C249.267 83.9274 249.412 83.7354 249.54 83.525L249.884 82.8942L250.583 81.6419C250.797 81.2405 250.99 80.8285 251.164 80.4075C251.326 79.9963 251.527 79.6213 251.644 79.2466C251.762 78.8717 251.88 78.5242 251.989 78.195C252.024 78.0936 252.051 77.9897 252.07 77.8842L250.456 76.6502C250.279 76.969 250.079 77.2745 249.857 77.5644C249.595 77.9266 249.31 78.2716 249.004 78.5974C248.683 78.9246 248.341 79.23 247.979 79.5116C247.633 79.7849 247.267 80.0294 246.882 80.243C246.529 80.4599 246.162 80.6524 245.784 80.8189C245.412 80.9652 245.067 81.139 244.732 81.2487L243.77 81.5596C243.19 81.7515 242.672 81.8156 242.327 81.9068L241.783 82.0257L242.273 81.7423C242.699 81.5127 243.109 81.2592 243.506 80.9834L244.296 80.435C244.568 80.2338 244.823 79.9869 245.095 79.7494C245.377 79.5106 245.638 79.2476 245.875 78.9631C246.125 78.6938 246.355 78.4065 246.564 78.1038C246.77 77.8116 246.959 77.5063 247.127 77.1894C247.269 76.8916 247.396 76.5864 247.507 76.2752C247.601 75.9758 247.674 75.6704 247.725 75.3612C247.77 75.1077 247.795 74.8506 247.798 74.5931L237.819 66.9868V58.6122L219.676 42.8144C213.174 42.3906 206.651 42.4701 200.162 43.0522L199.047 45.2189C199.047 45.2189 191.254 39.7335 178.009 36.2046C178.009 36.296 175.433 45.9777 181.565 52.6608L183.462 54.8549C175.923 61.2546 174.19 66.6485 174.19 66.6485C181.765 66.301 184.459 68.8881 184.459 68.8881C184.459 68.8881 178.581 75.2877 176.812 83.1411C173.61 79.4112 175.142 72.6092 175.142 72.6092L165.717 75.233C165.717 75.233 165.717 68.7236 170.589 60.4865C172.022 58.3642 173.586 56.3334 175.269 54.4069C173.959 52.907 172.983 51.143 172.403 49.2324C169.845 50.3934 165.944 52.2036 161.208 54.4891C161.208 54.4891 161.208 54.4891 161.208 54.5622C161.108 54.9464 160.991 55.5496 160.836 56.3175C160.682 57.0856 160.528 58.0271 160.365 59.115C160.201 60.2029 160.056 61.4373 159.929 62.772C159.802 64.107 159.748 65.5881 159.693 67.1329C159.66 68.7526 159.712 70.373 159.848 71.9874C159.848 72.8377 160.011 73.6697 160.102 74.5382C160.192 75.4067 160.338 76.2571 160.528 77.1072C160.865 78.849 161.32 80.5657 161.889 82.2451C162.17 83.0954 162.515 83.9092 162.796 84.741C163.077 85.573 163.504 86.3774 163.939 87.1363C164.374 87.8952 164.746 88.7088 165.227 89.4218L165.917 90.5282C166.143 90.8939 166.406 91.2319 166.651 91.5794C166.896 91.9269 167.141 92.2834 167.386 92.6218L168.185 93.5907C168.448 93.9109 168.711 94.2214 168.965 94.5049C169.218 94.7883 169.509 95.0993 169.781 95.4193C170.833 96.6259 171.986 97.6042 173.011 98.6008L174.58 99.9081L175.315 100.521L176.032 101.06L177.356 102.038C177.755 102.358 178.145 102.614 178.508 102.852C179.923 103.766 180.731 104.37 180.731 104.37C180.731 104.37 179.824 104.141 178.109 103.675C177.265 103.474 176.295 103.071 175.151 102.66L174.244 102.322C173.945 102.203 173.645 102.057 173.337 101.91L171.387 100.996C169.938 100.224 168.541 99.3565 167.205 98.3996C166.842 98.1436 166.47 97.8968 166.107 97.6226L165.055 96.7082L163.975 95.794L162.941 94.7795C162.596 94.4412 162.224 94.1028 161.889 93.7371L160.909 92.5944C160.236 91.8224 159.606 91.0138 159.022 90.1714C158.705 89.7512 158.423 89.3121 158.115 88.8733L157.28 87.5294C156.8 86.6153 156.301 85.7011 155.856 84.7867L152.808 92.1004L146.295 89.358C146.575 89.9157 146.848 90.4642 147.202 91.0036C147.682 91.8447 148.227 92.6491 148.744 93.4629C149.261 94.2766 149.832 95.0626 150.458 95.794C151.084 96.5255 151.647 97.2936 152.273 97.9609L153.234 99.0029C153.552 99.3412 153.906 99.6522 154.232 99.9722L155.239 100.932L156.282 101.791L157.326 102.642C157.67 102.916 158.024 103.163 158.378 103.428C159.748 104.498 161.19 105.256 162.487 106.171L164.429 107.231L165.336 107.734L166.243 108.163L167.867 108.932C168.318 109.165 168.781 109.373 169.255 109.553C170.969 110.257 171.976 110.714 171.976 110.714C171.976 110.714 170.915 110.714 169.028 110.522C167.896 110.424 166.77 110.269 165.653 110.056L164.638 109.937L163.54 109.681L161.263 109.096C159.557 108.57 157.884 107.938 156.255 107.204C155.82 107.003 155.348 106.82 154.922 106.6L153.615 105.878L152.273 105.11L150.948 104.251C150.513 103.949 150.041 103.675 149.615 103.336L148.308 102.367C147.433 101.682 146.594 100.949 145.796 100.173C145.374 99.7942 144.974 99.3912 144.598 98.9665L143.428 97.7048C142.702 96.7908 141.958 95.9404 141.287 95.0077C140.615 94.0754 139.935 93.1246 139.355 92.1371C139.064 91.6435 138.747 91.1682 138.448 90.6654L137.649 89.1568C137.114 88.1511 136.687 87.1181 136.216 86.1125C135.744 85.1067 135.372 84.0737 135.037 83.0495C134.364 81.0991 133.801 79.1121 133.349 77.0982C132.941 75.1781 132.623 73.3498 132.442 71.6127C132.342 70.8632 132.279 70.1498 132.224 69.4643C127.153 72.3531 122 75.37 117.156 78.4603L130.083 82.885C130.083 82.885 111.033 94.7702 98.0693 110.824H196.143C197.003 109.087 198.066 107.46 199.309 105.979C191.598 106.719 185.702 107.46 185.702 107.46L196.126 94.4137L194.945 100.539C197.82 99.9273 200.724 99.4694 203.646 99.1675C209.183 98.5441 214.759 98.318 220.328 98.4912C219.661 97.1036 219.349 95.5699 219.421 94.0294C217.843 94.7061 216.328 95.5105 214.949 96.2694C217.489 92.7681 220.328 89.5863 224.729 88.654C231.197 87.2918 235.243 92.2469 240.151 95.3919C242.135 96.6204 244.27 97.5854 246.5 98.2625C251.354 99.7251 261.305 98.4819 261.305 98.4819L266.432 92.7315C264.649 93.5158 262.74 93.9683 260.797 94.0661C261.448 92.1199 261.854 90.0987 262.004 88.0505ZM186.192 52.6333C181.057 47.9525 181.656 40.7483 181.656 40.7483C185.612 41.2145 194.293 46.0234 195.699 46.8188C192.375 48.4874 189.195 50.4322 186.192 52.6333ZM239.714 74.7668C239.382 74.7586 239.051 74.7155 238.726 74.639C238.488 74.5914 238.253 74.5213 238.028 74.4284C237.756 74.3398 237.49 74.2266 237.239 74.0902C236.631 73.7815 236.057 73.4107 235.524 72.9841C235.061 72.6184 234.616 72.1978 234.154 71.768C233.455 71.8321 232.766 71.8776 232.122 71.8776C231.418 71.8776 230.714 71.8286 230.018 71.7317C229.881 72.1796 229.754 72.6457 229.645 73.0297C229.493 73.5801 229.372 74.1386 229.282 74.7027C229.239 74.951 229.21 75.201 229.192 75.4524C229.174 75.6838 229.174 75.9159 229.192 76.1474C229.167 76.537 229.167 76.928 229.192 77.3176C229.192 77.6467 229.282 77.9116 229.31 78.0946C229.337 78.2773 229.31 78.387 229.31 78.387L229.101 78.1861C228.903 77.9948 228.717 77.7901 228.548 77.5733C228.277 77.2204 228.05 76.8368 227.867 76.4305C227.624 75.9026 227.444 75.3471 227.332 74.7761C227.198 74.1048 227.131 73.4219 227.132 72.7373C227.135 72.1598 227.168 71.5831 227.233 71.0091C226.191 70.5755 225.26 69.9098 224.511 69.0619C223.123 67.387 222.442 65.2306 222.615 63.0555H222.424C222.089 62.9824 221.771 62.9183 221.454 62.8727C220.828 62.7631 220.229 62.6808 219.694 62.6167L218.279 62.4429L216.991 62.2966C217.332 62.0137 217.696 61.7599 218.08 61.538C220.581 60.048 223.51 59.455 226.388 59.8558C226.878 59.9198 227.368 60.0751 227.877 60.1941L228.648 60.4775C228.648 60.3494 228.648 60.2215 228.648 60.0933C228.648 59.4626 228.648 58.8501 228.648 58.2651C228.648 57.1311 228.574 56.1622 228.566 55.5223C228.557 54.8823 228.566 54.425 228.566 54.425L228.748 54.6444C228.847 54.8001 229.038 55.0194 229.22 55.3211C229.452 55.6706 229.664 56.0337 229.854 56.4089C230.112 56.892 230.341 57.3898 230.543 57.8992C230.662 58.1827 230.77 58.4751 230.879 58.8134L231.169 59.7825C231.363 60.4941 231.509 61.2179 231.605 61.9493C231.63 62.0913 231.644 62.235 231.65 62.3788H231.696L231.741 62.4247L231.804 62.4796L232.04 62.7171L232.503 63.2018L233.002 63.7595C233.323 64.1213 233.626 64.4998 233.909 64.8929C234.456 65.6263 234.953 66.396 235.397 67.197C236.304 68.6962 236.929 70.0949 237.51 71.2103C237.647 71.503 237.792 71.768 237.936 72.0148C238.082 72.2619 238.219 72.4994 238.354 72.7188C238.49 72.9381 238.627 73.1304 238.754 73.3224C238.872 73.4985 239.002 73.6664 239.144 73.8252C239.333 74.0707 239.539 74.3029 239.76 74.52L240.005 74.7761L239.714 74.7668Z" fill="#060606"/>
<path d="M230.946 68.5408H231.045L230.963 68.4478L230.946 68.5408Z" fill="#060606"/>
<path d="M230.984 94.5235C228.534 92.4389 225.722 92.2195 222.919 92.8506C222.919 93.0059 222.828 93.1978 222.783 93.4082L231.555 97.4764L224.116 98.3906L224.361 98.6832C228.544 98.9301 232.699 99.3962 236.807 100.036C234.685 98.3632 233.043 96.2789 230.984 94.5235Z" fill="#060606"/>
<path d="M227.231 64.7726C226.949 64.5988 226.651 64.4525 226.323 64.2792L225.897 64.0962C225.936 65.1008 226.303 66.0646 226.94 66.8379C227.189 67.1098 227.476 67.3436 227.793 67.5323C227.893 67.0478 228.002 66.5637 228.082 66.0974L228.191 65.5675L227.956 65.3574C227.726 65.1486 227.484 64.9533 227.231 64.7726Z" fill="#060606"/>
<path d="M141.961 57.4134L142.66 60.3573L143.394 63.4384L143.54 64.0325L146.306 65.2026L147.468 62.4143L146.987 61.5642L145.644 59.1505L144.066 56.3255L142.623 53.7383L139.947 48.9478L141.272 54.4972L141.961 57.4134Z" fill="#060606"/>
<path d="M271.536 87.4824L271.381 87.8296C271.381 87.9212 271.255 88.1316 271.227 88.1591C271.2 88.1864 271.145 88.305 271.073 88.4148C271.001 88.5248 270.864 88.6526 270.728 88.7897C270.593 88.9268 270.429 89.0458 270.238 89.1647C270.044 89.2951 269.841 89.4112 269.631 89.5119C269.404 89.6273 269.172 89.7281 268.932 89.8135C268.419 90.0081 267.891 90.1608 267.354 90.2708C266.891 90.3712 266.446 90.4446 266.075 90.4901C265.62 90.554 265.163 90.5934 264.705 90.6091C265.15 90.7325 265.601 90.8329 266.057 90.9107C266.438 90.9748 266.873 91.0389 267.354 91.0845H267.499C267.761 91.0845 268.034 91.0845 268.325 91.0845C268.627 91.1039 268.93 91.1039 269.231 91.0845C269.536 91.0723 269.839 91.0417 270.138 90.9929C270.445 90.9499 270.748 90.8858 271.046 90.8011C271.33 90.7172 271.608 90.6164 271.881 90.4993C272.144 90.3805 272.379 90.2252 272.607 90.0971C272.718 90.0226 272.824 89.9401 272.923 89.8502L273.251 89.5578C273.374 89.4388 273.493 89.3139 273.604 89.1829L273.858 88.8901L272.724 88.1591L271.536 87.4824Z" fill="#060606"/>
<path d="M148.709 82.0996L147.548 84.889L150.316 86.0593L151.477 83.2699L148.709 82.0996Z" fill="#060606"/>
<path d="M88.3137 116.501H63.8472L70.8234 123.449H77.9174L70.4696 151.269H72.4472L82.045 124.51L77.0738 151.269H79.2782L86.7985 123.449H95.2806L88.3137 116.501Z" fill="#060606"/>
<path d="M118.438 116.501H92.9648L99.2335 122.763L93.4367 144.348L95.1239 146.03L102.844 124.51L98.2628 149.193L100.403 151.324H109.004L111.879 149.496L120.815 124.574L116.769 146.396L119.681 144.421L125.351 123.394L118.438 116.501ZM110.936 144.312H102.263L107.933 123.449H116.551L110.936 144.312Z" fill="#060606"/>
<path d="M122.766 116.501L129.188 122.9L121.65 151.241H123.627L133.225 124.482L128.254 151.269H130.468L134.151 137.354H145.871L151.813 131.165L154.199 122.169L148.43 116.501H122.766ZM144.746 130.406H136.065L137.979 123.449H146.588L144.746 130.406Z" fill="#060606"/>
<path d="M182.601 116.501H157.12C157.162 116.605 159.257 118.692 163.406 122.763L155.822 151.269H157.691L167.289 124.51L162.317 151.269H173.204C173.726 151.078 174.211 150.797 174.638 150.438L176.025 149.523L184.997 124.5L180.96 146.341C182.677 145.232 183.676 144.601 183.954 144.449C184.317 143.23 186.206 136.221 189.623 123.422L182.601 116.501ZM175.154 144.312H166.445C168.949 134.883 170.246 130.086 170.337 129.922C170.809 127.729 171.415 125.567 172.151 123.449H180.76L175.154 144.312Z" fill="#060606"/>
<path d="M193.356 122.762C193.356 122.762 191.27 130.743 187.623 144.311C187.876 144.594 188.466 145.225 189.346 146.084L197.084 124.508L192.503 149.192L194.59 151.249H203.126C203.653 151.062 204.141 150.78 204.569 150.418L206.066 149.449L215.01 124.49L210.974 146.248C212.625 145.188 213.585 144.576 213.858 144.42C214.221 143.201 216.111 136.192 219.528 123.393L212.561 116.509H187.078L193.356 122.762ZM210.71 123.448L205.113 144.311H196.432L202.11 123.448H210.71Z" fill="#060606"/>
<path d="M223.441 122.761L217.698 144.31L219.512 146.139L227.233 124.507L222.641 149.247C223.277 149.886 223.958 150.555 224.683 151.268H235.941L242.173 133.897L238.943 151.268H242.165L247.698 130.404H234.489C234.489 130.569 232.676 137.353 232.676 137.353H237.048L235.233 144.31H226.561L232.231 123.447H249.648C249.043 122.789 246.722 120.47 242.682 116.49H217.153C217.199 116.599 223.441 122.761 223.441 122.761Z" fill="#060606"/>
<path d="M52.1431 172.644H53.7488V170.276H55.9804V169.279H53.7488V167.012H57.45V167.798H58.9469V165.897H52.1431V172.644Z" fill="#060606"/>
<path d="M61.709 167.012H63.2694V171.529H61.709V172.644H66.4444V171.529H64.875V167.012H66.4444V165.897H61.709V167.012Z" fill="#060606"/>
<path d="M69.1489 169.27L70.8634 172.644H77.1683V169.169H74.3289V169.828H75.6715V171.529H72.0156L70.8907 169.27L72.0156 167.012H75.6715V167.46H77.1683V165.897H70.8634L69.1489 169.27Z" fill="#060606"/>
<path d="M86.8035 169.051H82.7121V165.897H81.1064V172.644H82.7121V170.166H86.8035V172.644H88.4092V165.897H86.8035V169.051Z" fill="#060606"/>
<path d="M91.5991 167.012H94.3934V172.644H95.999V167.012H98.7931V165.897H91.5991V167.012Z" fill="#060606"/>
<path d="M101.554 167.012H103.115V171.529H101.554V172.644H106.29V171.529H104.72V167.012H106.29V165.897H101.554V167.012Z" fill="#060606"/>
<path d="M115.581 168.593L111.853 165.897H109.884V172.644H111.49V167.916L115.581 170.915V172.644H117.187V165.897H115.581V168.593Z" fill="#060606"/>
<path d="M120.358 169.27L122.073 172.644H128.369V169.169H125.538V169.828H126.881V171.529H123.225L122.1 169.27L123.225 167.012H126.881V167.46H128.369V165.897H122.073L120.358 169.27Z" fill="#060606"/>
<path d="M136.11 169.27L137.834 172.644H144.129V170.633H142.633V171.529H138.976L137.852 169.27L138.976 167.012H142.633V167.908H144.129V165.897H137.834L136.11 169.27Z" fill="#060606"/>
<path d="M153.653 169.051H149.552V165.897H147.956V172.644H149.552V170.166H153.653V172.644H155.259V165.897H153.653V169.051Z" fill="#060606"/>
<path d="M161.492 165.897L158.535 172.644H160.295L160.803 171.401H164.921L165.42 172.644H167.19L164.223 165.897H161.492ZM161.102 170.522L162.853 166.948L164.622 170.522H161.102Z" fill="#060606"/>
<path d="M174.826 168.631L172.503 165.897H170.48V172.644H172.086V167.899L174.826 170.568L177.574 167.899V172.644H179.18V165.897H177.156L174.826 168.631Z" fill="#060606"/>
<path d="M189.738 166.628C189.487 166.398 189.193 166.219 188.877 166.098C188.51 165.961 188.123 165.893 187.733 165.897H183.197V172.643H184.803V170.614H187.715C188.106 170.621 188.493 170.553 188.858 170.412C189.176 170.296 189.468 170.12 189.72 169.892C189.952 169.683 190.138 169.428 190.264 169.142C190.396 168.856 190.46 168.543 190.454 168.227C190.458 167.912 190.393 167.6 190.264 167.314C190.133 167.054 189.955 166.821 189.738 166.628ZM188.359 169.224C188.241 169.348 188.101 169.447 187.946 169.514C187.789 169.581 187.622 169.617 187.452 169.617H184.858V166.875H187.452C187.793 166.877 188.119 167.015 188.359 167.259C188.484 167.386 188.583 167.538 188.651 167.705C188.717 167.87 188.751 168.048 188.75 168.227C188.756 168.411 188.724 168.596 188.657 168.767C188.59 168.938 188.488 169.094 188.359 169.224Z" fill="#060606"/>
<path d="M193.264 167.012H194.833V171.529H193.264V172.644H197.999V171.529H196.439V167.012H197.999V165.897H193.264V167.012Z" fill="#060606"/>
<path d="M208.27 166.73C207.865 166.369 207.402 166.081 206.901 165.878C206.099 165.555 205.223 165.463 204.371 165.613C203.52 165.764 202.729 166.15 202.083 166.73C201.705 167.063 201.395 167.47 201.177 167.927C200.97 168.345 200.861 168.804 200.859 169.27C200.863 169.741 200.971 170.202 201.177 170.624C201.398 171.076 201.706 171.48 202.083 171.812C202.483 172.176 202.944 172.463 203.443 172.662C204.56 173.073 205.785 173.073 206.901 172.662C207.404 172.463 207.867 172.176 208.27 171.812C208.642 171.475 208.949 171.072 209.177 170.624C209.38 170.202 209.485 169.739 209.485 169.27C209.486 168.805 209.38 168.345 209.177 167.927C208.955 167.472 208.647 167.065 208.27 166.73ZM207.553 170.294C207.42 170.597 207.232 170.873 207 171.108C206.638 171.478 206.172 171.729 205.665 171.829C205.159 171.928 204.635 171.871 204.161 171.666C203.857 171.534 203.579 171.343 203.344 171.108C203.111 170.875 202.927 170.599 202.799 170.294C202.663 169.972 202.592 169.626 202.592 169.275C202.592 168.924 202.663 168.579 202.799 168.256C203.057 167.634 203.545 167.139 204.161 166.875C204.81 166.614 205.534 166.614 206.183 166.875C206.799 167.141 207.289 167.635 207.553 168.256C207.82 168.91 207.82 169.641 207.553 170.294Z" fill="#060606"/>
<path d="M218.482 168.593L214.753 165.897H212.785V172.644H214.39V167.916L218.482 170.915V172.644H220.088V165.897H218.482V168.593Z" fill="#060606"/>
<path d="M223.914 168.877L229.221 170.175V171.647H225.402V171.081H223.914V172.644H230.827V169.609L225.519 168.31V166.902H229.33V167.46H230.827V165.897H223.914V168.877Z" fill="#060606"/>
<path d="M240.345 169.051H236.254V165.897H234.648V172.644H236.254V170.166H240.345V172.644H241.951V165.897H240.345V169.051Z" fill="#060606"/>
<path d="M245.53 167.012H247.099V171.529H245.53V172.644H250.266V171.529H248.705V167.012H250.266V165.897H245.53V167.012Z" fill="#060606"/>
<path d="M260.934 167.369C260.8 167.089 260.616 166.837 260.39 166.628C260.125 166.393 259.817 166.214 259.483 166.098C259.116 165.961 258.729 165.893 258.339 165.897H253.804V172.643H255.409V170.614H258.321C258.712 170.621 259.099 170.553 259.465 170.412C259.798 170.301 260.106 170.125 260.371 169.892C260.601 169.681 260.786 169.427 260.915 169.142C261.047 168.856 261.112 168.543 261.107 168.227C261.108 167.932 261.05 167.64 260.934 167.369ZM259.011 169.197C258.894 169.32 258.752 169.418 258.597 169.485C258.441 169.554 258.273 169.588 258.103 169.59H255.509V166.847H258.076C258.417 166.85 258.744 166.987 258.983 167.231C259.109 167.359 259.208 167.51 259.275 167.676C259.341 167.843 259.375 168.021 259.374 168.2C259.384 168.389 259.355 168.578 259.287 168.755C259.22 168.93 259.116 169.091 258.983 169.224L259.011 169.197Z" fill="#060606"/>
</g>
</svg>
